<svg width="25" height="25" viewBox="0 0 25 25" fill="none" xmlns="http://www.w3.org/2000/svg">
<path d="M5.96747 19.1089L3.33622 23.1714L3.61622 24.5001L4.94122 24.2164L7.57122 20.1564C7.00566 19.8571 6.46882 19.5064 5.96747 19.1089ZM17.1075 17.6901C17.125 17.6539 17.1362 17.6139 17.1525 17.5751C17.2187 17.4289 17.2775 17.2826 17.325 17.1289C17.3325 17.1014 17.3362 17.0739 17.345 17.0489C17.3937 16.8809 17.4346 16.7107 17.4675 16.5389V16.5126C17.7112 15.0514 17.2862 13.4214 16.3137 11.9489L17.7012 9.80636C19.3 10.0101 20.6825 9.60761 21.3475 8.57886C22.5012 6.80011 21.0975 3.83886 18.2162 1.96261C15.3325 0.0851063 12.0625 0.00635615 10.9112 1.78261C10.2437 2.81261 10.4387 4.24136 11.2775 5.62386L9.88747 7.76636C8.15122 7.47511 6.49247 7.74636 5.25872 8.56636C5.25122 8.56886 5.24247 8.57136 5.23747 8.57636C5.09332 8.67436 4.95477 8.78036 4.82247 8.89386C4.80122 8.91136 4.77622 8.92761 4.75872 8.94511C4.63871 9.05115 4.52557 9.16471 4.41997 9.28511C4.39497 9.31511 4.35997 9.34136 4.33622 9.37261C4.20309 9.52338 4.08189 9.68428 3.97372 9.85386C2.24372 12.5201 3.71997 16.5551 7.26497 18.8651C10.8125 21.1751 15.09 20.8826 16.8162 18.2164C16.925 18.0476 17.025 17.8714 17.1075 17.6901ZM16.0887 5.24261C14.98 4.52136 14.4387 3.38386 14.8825 2.69761C15.325 2.01386 16.5837 2.04511 17.69 2.76636C18.8012 3.48761 19.3375 4.62761 18.8962 5.31136C18.455 5.99511 17.1987 5.96386 16.0887 5.24261Z" fill="white"/>
</svg>
